<svg width="42" height="42" viewBox="0 0 42 42" fill="none" xmlns="http://www.w3.org/2000/svg">
<path d="M19 21H22.5V22.3C22.5 22.5333 22.6 22.6917 22.8 22.775C23 22.8583 23.1833 22.8167 23.35 22.65L25.3 20.7C25.5 20.5 25.6 20.2667 25.6 20C25.6 19.7333 25.5 19.5 25.3 19.3L23.35 17.35C23.1833 17.1833 23 17.1417 22.8 17.225C22.6 17.3083 22.5 17.4667 22.5 17.7V19H18C17.7167 19 17.479 19.096 17.287 19.288C17.095 19.48 16.9993 19.7173 17 20V23C17 23.2833 17.096 23.521 17.288 23.713C17.48 23.905 17.7173 24.0007 18 24C18.2833 24 18.521 23.904 18.713 23.712C18.905 23.52 19.0007 23.2827 19 23V21ZM21 31C20.75 31 20.504 30.95 20.262 30.85C20.02 30.75 19.7993 30.6 19.6 30.4L11.6 22.4C11.4 22.2 11.25 21.979 11.15 21.737C11.05 21.495 11 21.2493 11 21C11 20.75 11.05 20.504 11.15 20.262C11.25 20.02 11.4 19.7993 11.6 19.6L19.6 11.6C19.8 11.4 20.021 11.25 20.263 11.15C20.505 11.05 20.7507 11 21 11C21.25 11 21.496 11.05 21.738 11.15C21.98 11.25 22.2007 11.4 22.4 11.6L30.4 19.6C30.6 19.8 30.75 20.021 30.85 20.263C30.95 20.505 31 20.7507 31 21C31 21.25 30.95 21.496 30.85 21.738C30.75 21.98 30.6 22.2007 30.4 22.4L22.4 30.4C22.2 30.6 21.979 30.75 21.737 30.85C21.495 30.95 21.2493 31 21 31ZM17 25L21 29L29 21L21 13L13 21L17 25Z" fill="#0027B2"/>
<circle cx="21" cy="21" r="20.5" stroke="#0027B2"/>
</svg>
