<svg width="181" height="37" viewBox="0 0 181 37" fill="none" xmlns="http://www.w3.org/2000/svg">
<path fill-rule="evenodd" clip-rule="evenodd" d="M0 0H39.6659V37H0V0ZM4.95823 31.8966V5.10345H34.7076V31.8966H22.9318V25.5172H16.734V31.8966H4.95823ZM108.417 28.3431C106.402 28.2974 104.786 27.6121 103.57 26.2872C102.354 24.9624 101.666 23.1898 101.506 20.9695C101.418 19.873 101.502 18.5847 101.759 17.1045C102.016 15.6151 102.474 14.2446 103.131 12.9929C103.788 11.7411 104.609 10.6994 105.594 9.86796C107.245 8.47 109.145 7.79386 111.293 7.83953C112.616 7.86697 113.77 8.18223 114.755 8.78527C115.749 9.37918 116.544 10.238 117.138 11.3619C117.733 12.4857 118.08 13.765 118.177 15.1995C118.248 16.2137 118.186 17.3695 117.99 18.6669C117.805 19.9552 117.454 21.1888 116.939 22.3675C116.433 23.537 115.776 24.5695 114.968 25.4649C114.16 26.3603 113.206 27.073 112.105 27.603C111.014 28.1238 109.784 28.3705 108.417 28.3431ZM113.61 15.1583C113.521 12.8741 112.66 11.6863 111.027 11.5949C109.766 11.5309 108.723 12.0471 107.897 13.1436C107.072 14.2309 106.526 15.8391 106.26 17.968C106.091 19.2837 106.029 20.3025 106.073 21.0243C106.162 23.3451 107.032 24.5375 108.683 24.6014C109.766 24.6563 110.698 24.2588 111.48 23.4091C112.261 22.5502 112.825 21.3075 113.17 19.6811C113.517 18.0456 113.663 16.538 113.61 15.1583ZM65.8323 28.069H70.3859L73.755 8.11365H57.8961L54.5406 28.069H59.0947L61.8372 11.8279H68.5619L65.8323 28.069ZM96.7011 8.11365H92.0273L83.3324 20.435L85.423 8.11365H80.8558L77.4867 28.069H82.1741L90.8689 15.7614L88.7784 28.069H93.3456L96.7011 8.11365ZM133.846 28.069H138.373L141.742 8.11365H137.201L135.87 16.0355H129.212L130.557 8.11365H125.99L122.634 28.069H127.188L128.599 19.736H135.244L133.846 28.069ZM158.29 19.6126H151.165L150.354 24.3685H158.783L158.157 28.069H145.174L148.529 8.11365H161.539L160.913 11.8279H152.471L151.752 16.0355H158.889L158.29 19.6126ZM168.486 28.069L169.631 21.2984L172.827 21.3121C174.309 21.3121 175.645 21.0517 176.834 20.5309C178.033 20.0101 178.996 19.2563 179.724 18.2695C180.452 17.2827 180.869 16.1177 180.976 14.7745C181.126 12.8101 180.581 11.2111 179.337 9.97762C178.104 8.74412 176.408 8.12737 174.251 8.12737L167.287 8.11365L163.932 28.069H168.486ZM173 17.6116L170.256 17.5842L171.228 11.8279L174.411 11.8416C174.971 11.8781 175.419 12.0609 175.756 12.3898C176.102 12.7096 176.311 13.1482 176.382 13.7056C176.506 14.7929 176.262 15.7111 175.649 16.4603C175.037 17.2005 174.154 17.5842 173 17.6116Z" fill="white"/>
</svg>
