<svg width="21" height="19" viewBox="0 0 21 19" fill="none" xmlns="http://www.w3.org/2000/svg">
<path d="M9.63731 9.08255L9.23981 9.48005C9.06731 9.65255 8.97731 9.87755 8.97731 10.1176C8.97731 10.3576 9.07481 10.5901 9.23981 10.7551L9.63731 11.1526C9.66563 11.1814 9.69949 11.2043 9.73687 11.2198C9.77425 11.2352 9.81436 11.243 9.85481 11.2426H10.1773C10.3423 11.2426 10.4773 11.3776 10.4773 11.5426V13.1851C10.4773 13.3501 10.6123 13.4851 10.7773 13.4851H11.0998C11.1403 13.4855 11.1804 13.4777 11.2178 13.4623C11.2551 13.4468 11.289 13.4239 11.3173 13.3951L11.6248 13.0876C11.8498 12.8626 11.9773 12.5551 11.9773 12.2326V11.3026C11.9773 11.2576 11.9848 11.2126 12.0073 11.1676L12.6898 9.79505C12.7123 9.75005 12.7198 9.70505 12.7198 9.66005V9.28505C12.7198 9.12005 12.8548 8.98505 13.0198 8.98505H13.1623C13.3273 8.98505 13.4623 9.12005 13.4623 9.28505V9.42755C13.4623 9.59255 13.5973 9.72755 13.7623 9.72755H13.9048C14.0698 9.72755 14.2048 9.59255 14.2048 9.42755V9.28505C14.2048 9.12005 14.3398 8.98505 14.5048 8.98505H14.6473C14.8123 8.98505 14.9473 9.12005 14.9473 9.28505V9.42755C14.9473 9.59255 15.0823 9.72755 15.2473 9.72755H16.0873C16.2073 9.72755 16.3198 9.65255 16.3648 9.54005L17.0248 7.89755C17.0432 7.85206 17.0502 7.80275 17.0451 7.75394C17.04 7.70513 17.023 7.65832 16.9956 7.6176C16.9682 7.57688 16.9313 7.54351 16.888 7.5204C16.8447 7.49729 16.7964 7.48515 16.7473 7.48505C16.5823 7.48505 16.4473 7.35005 16.4473 7.18505V6.29255C16.4473 6.12755 16.5823 5.99255 16.7473 5.99255H16.8898C17.0548 5.99255 17.1898 6.12755 17.1898 6.29255V6.36755C17.1898 6.57755 17.3548 6.74255 17.5648 6.74255C17.7748 6.74255 17.9398 6.57755 17.9398 6.36755V4.91255C17.9398 4.26755 17.4148 3.75005 16.7773 3.75005H16.7473C16.5823 3.75005 16.4473 3.88505 16.4473 4.05005V4.19255C16.4473 4.35755 16.3123 4.49255 16.1473 4.49255H15.2548C15.0898 4.49255 14.9548 4.35755 14.9548 4.19255C14.9548 3.94505 14.7523 3.74255 14.5048 3.74255H14.2048C13.7923 3.74255 13.4548 4.08005 13.4548 4.49255V4.51505C13.4548 4.59755 13.4173 4.68005 13.3573 4.74005L12.0448 5.91755C11.9923 5.97005 11.9173 5.99255 11.8423 5.99255H10.7623C10.5973 5.99255 10.4623 6.12755 10.4623 6.29255V6.43505C10.4623 6.60005 10.3273 6.73505 10.1623 6.73505H10.0198C9.85481 6.73505 9.71981 6.87005 9.71981 7.03505V7.92755C9.71981 8.09255 9.85481 8.22755 10.0198 8.22755H10.1623C10.3273 8.22755 10.4623 8.36255 10.4623 8.52755V8.67005C10.4623 8.83505 10.3273 8.97005 10.1623 8.97005H9.83981L9.81881 8.97905C9.75731 9.0068 9.69131 9.0353 9.63731 9.08255ZM6.35231 14.2426C6.56231 14.2426 6.72731 14.0776 6.72731 13.8676V13.5301C6.72731 13.0426 6.99731 12.6076 7.43231 12.3901L7.88981 12.1576C8.09231 12.0526 8.22731 11.8426 8.22731 11.6176C8.22731 11.3851 8.09981 11.1751 7.88981 11.0776L7.01231 10.6426C6.82481 10.5451 6.61481 10.5001 6.40481 10.5001H6.07481C6.04422 10.5002 6.0139 10.4943 5.98559 10.4827C5.95727 10.4712 5.93152 10.4541 5.90981 10.4326L4.54481 9.06755C4.52326 9.04584 4.5062 9.02009 4.49462 8.99178C4.48304 8.96347 4.47716 8.93315 4.47731 8.90255V8.48255C4.47731 8.35505 4.58231 8.25005 4.70981 8.25005H4.99481C5.12231 8.25005 5.22731 8.35505 5.22731 8.48255V8.62505C5.22731 8.83505 5.39231 9.00005 5.60231 9.00005C5.81231 9.00005 5.97731 8.83505 5.97731 8.62505V8.48255C5.97731 8.35505 6.08231 8.25005 6.20981 8.25005C6.53981 8.25005 6.86231 8.11505 7.09481 7.88255L7.31231 7.66505C7.40231 7.57505 7.40231 7.42505 7.31231 7.33505L6.79481 6.81755C6.77326 6.79584 6.7562 6.77009 6.74462 6.74178C6.73304 6.71347 6.72716 6.68315 6.72731 6.65255V6.37505C6.72731 6.16505 6.56231 6.00005 6.35231 6.00005C6.14231 6.00005 5.97731 6.16505 5.97731 6.37505C5.97731 6.58505 5.81231 6.75005 5.60231 6.75005C5.39231 6.75005 5.22731 6.58505 5.22731 6.37505V6.23255C5.22731 6.10505 5.33231 6.00005 5.45981 6.00005C5.59481 6.00005 5.69981 5.88755 5.69231 5.76005L5.67731 5.49755C5.66981 5.36255 5.77481 5.25755 5.90981 5.25755H6.49481C6.62231 5.25755 6.72731 5.15255 6.72731 5.02505V4.88255C6.72731 4.67255 6.89231 4.50755 7.10231 4.50755C7.31231 4.50755 7.47731 4.67255 7.47731 4.88255V6.38255C7.47731 6.59255 7.64231 6.75755 7.85231 6.75755C8.06231 6.75755 8.22731 6.59255 8.22731 6.38255V6.10505C8.22731 6.04505 8.24981 5.98505 8.29481 5.94005L8.60231 5.63255C8.84231 5.39255 8.97731 5.07005 8.97731 4.73255C8.97731 4.19255 8.54231 3.75755 8.00231 3.75755H6.80231C6.27731 3.75755 5.77481 3.97505 5.41481 4.35755L4.94981 4.86005C4.71731 5.11505 4.38731 5.25755 4.04231 5.25755H3.96731C3.83981 5.25755 3.73481 5.15255 3.73481 5.02505C3.73481 4.74005 3.50231 4.50755 3.21731 4.50755H2.75231C2.46731 4.50755 2.23481 4.74005 2.23481 5.02505V5.30255C2.23481 5.75255 2.05481 6.18755 1.73981 6.50255L1.55981 6.68255C1.53826 6.70426 1.5212 6.73001 1.50962 6.75833C1.49804 6.78664 1.49216 6.81696 1.49231 6.84755V6.94505C1.49231 7.15505 1.73981 7.25255 1.88981 7.11005L2.83481 6.16505C2.93231 6.06755 3.06731 6.00755 3.20981 6.00755C3.35831 6.00755 3.29981 6.06905 3.20681 6.1688C3.11606 6.2648 2.99231 6.39605 2.99231 6.54005V8.31005C2.99231 8.6168 3.42356 8.9123 3.79781 9.16955C3.97406 9.28955 4.13681 9.40205 4.23731 9.50255L5.17481 10.4401C5.21981 10.4851 5.24231 10.5451 5.24231 10.6051V11.4451C5.24231 11.8051 5.38481 12.1576 5.63981 12.4126L5.92481 12.6976C5.96981 12.7426 5.99231 12.8026 5.99231 12.8626V13.8901C5.97731 14.0776 6.14981 14.2426 6.35231 14.2426Z" fill="#0027B2"/>
<path d="M15.2025 11.52C15.06 11.34 14.9775 11.115 14.9775 10.8825V10.725C14.9775 10.5975 15.0825 10.4925 15.21 10.4775H15.495C15.6225 10.4775 15.7275 10.5825 15.7275 10.71C15.7275 10.9275 15.99 11.025 16.1325 10.8675L16.41 10.56C16.455 10.515 16.515 10.485 16.5825 10.485H17.2275C17.64 10.485 17.9775 10.8225 17.9775 11.235V11.865C17.9775 12.015 17.8425 12.12 17.7 12.09L17.535 12.0525C17.4479 12.0331 17.3701 11.9847 17.3142 11.9152C17.2583 11.8457 17.2277 11.7592 17.2275 11.67C17.2275 11.4375 17.025 11.2575 16.7925 11.28L16.68 11.295C16.5675 11.31 16.4775 11.4075 16.4775 11.5275V11.805C16.4775 11.91 16.4025 12.0075 16.2975 12.03C15.9525 12.1125 15.585 11.985 15.36 11.7075L15.2025 11.52ZM15.7275 13.875C15.7275 14.085 15.8925 14.25 16.1025 14.25H17.6025C17.8125 14.25 17.9775 14.085 17.9775 13.875V13.1625C17.9775 13.0511 17.9332 12.9443 17.8545 12.8656C17.7757 12.7868 17.6689 12.7425 17.5575 12.7425H16.35C16.005 12.7425 15.7275 13.0275 15.7275 13.3725V13.875Z" fill="#0027B2"/>
<path d="M0.39 1.38L5.2275 0L10.485 1.5L15.7275 0L20.6175 1.38C20.8425 1.44 21 1.6425 21 1.875V18.24C21 18.57 20.685 18.8175 20.3625 18.735L15.735 17.2523L10.485 18.75L5.2275 17.2425L0.6375 18.735C0.562082 18.7539 0.483363 18.7553 0.407289 18.7393C0.331215 18.7233 0.259777 18.6902 0.198372 18.6425C0.136967 18.5949 0.0872016 18.5338 0.0528359 18.4641C0.0184703 18.3944 0.000403344 18.3177 0 18.24V1.875C0 1.6425 0.165 1.44 0.39 1.38ZM10.485 17.2432L15.741 15.7507V15.7695L19.2225 16.83C19.5525 16.92 19.875 16.6725 19.875 16.335V3C19.875 2.7675 19.7175 2.565 19.4925 2.505L15.7275 1.515V1.506L10.485 2.9805V2.98275L5.2275 1.509V1.506L1.46475 2.505C1.35498 2.53347 1.25771 2.59747 1.18812 2.68701C1.11852 2.77655 1.08051 2.8866 1.08 3V16.32C1.08 16.6575 1.404 16.905 1.73625 16.815L5.2275 15.7575L10.485 17.2455V17.2432Z" fill="#0027B2"/>
</svg>
